<?xml version="1.0" encoding="utf-8"?>
<!-- Generator: Adobe Illustrator 19.0.0, SVG Export Plug-In . SVG Version: 6.00 Build 0)  -->
<svg version="1.1" xmlns="http://www.w3.org/2000/svg" xmlns:xlink="http://www.w3.org/1999/xlink" x="0px" y="0px" width="200px"
	 height="200px" viewBox="0 0 200 200" style="enable-background:new 0 0 200 200;" xml:space="preserve">
<style type="text/css">
	.st0{display:none;}
	.st1{display:inline;}
	.st2{fill:#060507;}
	.st3{fill:#010101;}
	.st4{fill:#FFFFFF;}
</style>
<g id="Layer_1" class="st0">
	<g id="XMLID_1_" class="st1">
		<path id="XMLID_7_" class="st2" d="M196.3,12.9c0-7.1-5.8-12.9-12.9-12.9l-43,0c-2.9,0-5.1,0.7-6.6,2.2c-2,2-2.8,5.8,1.5,10.1
			l10.9,10.9c-10.9,4.9-33.2,17-47.8,38.2H14.1c-0.6,0-1.3,0.1-1.9,0.2c-1.1,0.2-2.5,1-3.4,1.5c-0.8,0.5-3.1,2.2-4.2,4.4
			c-0.6,1.3-1,2.8-1,4.3v117.8c0,5.7,4.7,10.4,10.4,10.4h159.4c5.7,0,10.4-4.7,10.4-10.4V71.8c0-1.5-0.3-3-1-4.3
			c-1-2.2-3.3-3.9-4.2-4.4c-0.8-0.5-2.3-1.3-3.3-1.5c-0.6-0.1-1.3-0.2-1.9-0.2h-32c13.7-7.7,25.8-11.1,30.5-12.3l12,11.9
			c4.3,4.3,8.1,3.5,10.1,1.5c1.5-1.4,2.2-3.7,2.2-6.6L196.3,12.9z M175.5,73.5v116.1c0,1.1-0.9,2-2,2H14.1c-1.1,0-2-0.9-2-2l0.1-116
			l74.1,50.7c4.1,2.8,10.9,2.8,15,0L175.5,73.5z M166.1,69.8l-69.5,47.5c-1.3,0.9-4.1,0.9-5.5,0L21.5,69.8h71.7
			c-2.8,5.4-5.2,11.3-6.7,17.7c-2.4,10-1.7,19.4-1,20.6c0.4,0.7,0.9,1.4,1.4,2c0.7,0.8,1.7,1.3,2.8,1.5c1.8,0.3,4-1,5.1-1.8
			c1.1-0.8,5.3-9.2,11.3-17.5c6.7-9.3,14.5-16.7,22.4-22.5L166.1,69.8z M189.8,57.5c-0.3-0.2-0.8-0.5-1.3-1l-14.6-14.5
			c-0.3,0.1-22.4,4.4-45.1,19.5h-1V62c-13.1,8.9-26.4,21.4-35.8,38.9c3.5-52.7,59.8-74,60.4-74.2l4.4-1.9l-4.1-4.4L139.8,7.8
			c-0.5-0.5-0.8-0.9-1-1.3c0.3-0.1,0.8-0.2,1.6-0.2l43,0c3.6,0,6.5,2.9,6.5,6.5l0,43C189.9,56.6,189.8,57.1,189.8,57.5z"/>
	</g>
</g>
<g id="Layer_3" class="st0">
	<g id="XMLID_53_" class="st1">
		<g id="XMLID_54_">
			<path id="XMLID_29_" class="st3" d="M139.1,167.6c-2.2,0-3.9,1.8-3.9,3.9c0,2.2,1.8,3.9,3.9,3.9c2.2,0,3.9-1.8,3.9-3.9
				C143,169.3,141.2,167.6,139.1,167.6z"/>
		</g>
	</g>
	<g id="XMLID_43_" class="st1">
		<g id="XMLID_44_">
			<path id="XMLID_45_" class="st3" d="M197.3,69.1c-2.2-2.7-5.5-4.3-9-4.3h-20.7V11.7c0-6.5-5.3-11.7-11.7-11.7H44.1
				c-6.5,0-11.7,5.3-11.7,11.7v53.1H11.7c-3.5,0-6.8,1.6-9,4.3C1,71.2,0,73.9,0,76.6v111.7c0,3.1,1.2,6.1,3.4,8.3c0,0,0,0,0,0
				c0,0,0,0,0,0c2.2,2.2,5.1,3.4,8.2,3.4h176.6c3.1,0,6-1.2,8.2-3.3c0,0,0,0,0,0c0,0,0,0,0,0c2.2-2.2,3.4-5.2,3.4-8.3V76.6
				C200,73.9,199,71.2,197.3,69.1z M167.6,72.7h19l-19,15.3V72.7z M40.2,11.7c0-2.2,1.8-3.9,3.9-3.9h111.7c2.2,0,3.9,1.8,3.9,3.9
				v82.5l-40.4,32.5l-16.8-14c-1.4-1.2-3.6-1.2-5,0l-16.8,14L40.2,94.2V11.7z M32.4,72.7v15.3l-19-15.3H32.4z M7.8,187.4V78.2
				l66.7,53.6L7.8,187.4z M14.2,192.2l69-57.5l16.8-14l16.8,14l69,57.5H14.2z M192.2,187.4l-66.7-55.6l66.7-53.6V187.4z"/>
		</g>
	</g>
	<g id="XMLID_40_" class="st1">
		<g id="XMLID_41_">
			<path id="XMLID_21_" class="st3" d="M122.3,49.2c-1.5-1.5-4-1.5-5.5,0L96.1,69.9L83.2,57c-1.5-1.5-4-1.5-5.5,0
				c-1.5,1.5-1.5,4,0,5.5l15.6,15.6c0.8,0.8,1.8,1.1,2.8,1.1s2-0.4,2.8-1.1l23.4-23.4C123.8,53.2,123.8,50.7,122.3,49.2z"/>
		</g>
	</g>
	<g id="XMLID_37_" class="st1">
		<g id="XMLID_38_">
			<path id="XMLID_20_" class="st3" d="M123.4,167.6H60.9c-2.2,0-3.9,1.7-3.9,3.9s1.7,3.9,3.9,3.9h62.5c2.2,0,3.9-1.7,3.9-3.9
				S125.6,167.6,123.4,167.6z"/>
		</g>
	</g>
	<g id="XMLID_18_" class="st1">
		<g id="XMLID_33_">
			<path id="XMLID_34_" class="st3" d="M100,16.8c-23.7,0-43,19.3-43,43s19.3,43,43,43s43-19.3,43-43S123.7,16.8,100,16.8z
				 M100,94.9c-19.4,0-35.2-15.8-35.2-35.2S80.6,24.6,100,24.6s35.2,15.8,35.2,35.2S119.4,94.9,100,94.9z"/>
		</g>
	</g>
</g>
<g id="Layer_4" class="st0">
	<g id="XMLID_19_" class="st1">
		<g id="XMLID_78_">
			<g id="XMLID_79_">
				<path id="XMLID_50_" d="M84.4,175.4c-2.2,0-3.9,1.7-3.9,3.9c0,2.2,1.7,3.9,3.9,3.9s3.9-1.7,3.9-3.9
					C88.3,177.1,86.5,175.4,84.4,175.4z"/>
			</g>
		</g>
		<g id="XMLID_75_">
			<g id="XMLID_76_">
				<path id="XMLID_49_" d="M107.8,136.3h-3.9V109c0-2.2-1.7-3.9-3.9-3.9h-7.8c-2.2,0-3.9,1.7-3.9,3.9s1.7,3.9,3.9,3.9h3.9v23.4
					h-3.9c-2.2,0-3.9,1.7-3.9,3.9s1.7,3.9,3.9,3.9h15.6c2.2,0,3.9-1.7,3.9-3.9S110,136.3,107.8,136.3z"/>
			</g>
		</g>
		<g id="XMLID_72_">
			<g id="XMLID_73_">
				<path id="XMLID_48_" d="M44.2,159.8c2.2,0,3.9-1.7,3.9-3.9v-15.6c0-2.2-1.7-3.9-3.9-3.9H28.5c-2.2,0-3.9,1.7-3.9,3.9
					s1.7,3.9,3.9,3.9h11.7v7.8H28.5c-2.2,0-3.9,1.7-3.9,3.9v15.6c0,2.2,1.7,3.9,3.9,3.9h15.6c2.2,0,3.9-1.7,3.9-3.9
					s-1.7-3.9-3.9-3.9H32.4v-7.8H44.2z"/>
			</g>
		</g>
		<g id="XMLID_69_">
			<g id="XMLID_70_">
				<path id="XMLID_47_" d="M171.5,144.1h-15.6c-2.2,0-3.9,1.7-3.9,3.9s1.7,3.9,3.9,3.9h11.7v7.8h-11.7c-2.2,0-3.9,1.7-3.9,3.9
					s1.7,3.9,3.9,3.9h11.7v7.8h-11.7c-2.2,0-3.9,1.7-3.9,3.9c0,2.2,1.7,3.9,3.9,3.9h15.6c2.2,0,3.9-1.7,3.9-3.9v-31.2
					C175.4,145.9,173.6,144.1,171.5,144.1z"/>
			</g>
		</g>
		<g id="XMLID_62_">
			<g id="XMLID_63_">
				<path id="XMLID_64_" d="M196.1,128.5h-60.9V92.2c0-2.2-1.7-3.9-3.9-3.9H68.8c-2.2,0-3.9,1.7-3.9,3.9v20.7H3.9
					c-2.2,0-3.9,1.7-3.9,3.9v79.3c0,2.2,1.7,3.9,3.9,3.9h64.8h62.5h64.8c2.2,0,3.9-1.7,3.9-3.9v-63.7
					C200,130.3,198.3,128.5,196.1,128.5z M64.9,192.2h-57v-71.5h57V192.2z M127.3,192.2H72.7V96.1h54.7V192.2z M192.2,192.2h-57
					v-55.9h57V192.2z"/>
			</g>
		</g>
		<g id="XMLID_57_">
			<g id="XMLID_58_">
				<path id="XMLID_59_" d="M138.8,29.8c-0.5-1.4-1.7-2.4-3.2-2.7l-22.2-3.2l-10-21.6c-0.6-1.4-2-2.3-3.5-2.3
					c-1.5,0-2.9,0.9-3.5,2.3l-10,21.6l-22.2,3.2c-1.5,0.2-2.7,1.2-3.2,2.7c-0.5,1.4-0.1,3,1,4l16.2,15.7l-3.8,23.4
					c-0.2,1.5,0.4,2.9,1.6,3.8c1.2,0.9,2.8,1,4.1,0.3l19.9-10.5L119.8,77c0.6,0.3,1.2,0.4,1.8,0.4c0.8,0,1.6-0.2,2.3-0.7
					c1.2-0.9,1.8-2.3,1.6-3.8l-3.8-23.4l16.2-15.7C138.9,32.7,139.2,31.2,138.8,29.8z M114.7,45.4c-0.9,0.9-1.3,2.2-1.1,3.4
					l2.9,17.7l-14.8-7.8c-1.1-0.6-2.5-0.6-3.6,0l-14.8,7.8l2.9-17.7c0.2-1.3-0.2-2.5-1.1-3.4L73,33.7l16.5-2.4c1.3-0.2,2.4-1,3-2.2
					l7.3-15.9l7.3,15.9c0.6,1.2,1.7,2,3,2.2l16.5,2.4L114.7,45.4z"/>
			</g>
		</g>
		<g id="XMLID_30_">
			<g id="XMLID_35_">
				<path id="XMLID_36_" d="M115.6,175.4H100c-2.2,0-3.9,1.7-3.9,3.9c0,2.2,1.7,3.9,3.9,3.9h15.6c2.2,0,3.9-1.7,3.9-3.9
					C119.5,177.1,117.8,175.4,115.6,175.4z"/>
			</g>
		</g>
	</g>
	<g id="XMLID_60_" class="st1">
	</g>
</g>
<g id="Layer_5" class="st0">
	<g id="XMLID_15_" class="st1">
		<path id="XMLID_13_" class="st3" d="M41.8,105.2c15.8,0,28.7-12.9,28.7-28.7c0-15.8-12.9-28.7-28.7-28.7
			c-15.8,0-28.7,12.9-28.7,28.7C13.1,92.4,26,105.2,41.8,105.2z"/>
		<path id="XMLID_12_" class="st3" d="M59.7,100.7c-1-0.5-2.2-0.4-2.9,0.4l-14.9,15.6l-14.9-15.6c-0.8-0.8-2-1-2.9-0.4
			c-6.9,3.9-12.7,9.9-16.8,17.4c-4.2,7.7-6.4,16.6-6.4,25.7c0,1.3,1.1,2.4,2.4,2.4h77.3c1.3,0,2.4-1.1,2.4-2.4
			c0-9.2-2.2-18.1-6.4-25.7C72.3,110.6,66.5,104.6,59.7,100.7z"/>
		<path id="XMLID_11_" class="st3" d="M158.2,105.2c15.8,0,28.7-12.9,28.7-28.7c0-15.8-12.9-28.7-28.7-28.7
			c-15.8,0-28.7,12.9-28.7,28.7C129.6,92.4,142.4,105.2,158.2,105.2z"/>
		<path id="XMLID_10_" class="st3" d="M192.9,118.2c-4.1-7.5-9.9-13.6-16.8-17.4c-1-0.5-2.2-0.4-2.9,0.4l-14.9,15.6l-14.9-15.6
			c-0.8-0.8-2-1-2.9-0.4c-6.9,3.9-12.7,9.9-16.8,17.4c-4.2,7.7-6.4,16.6-6.4,25.7c0,1.3,1.1,2.4,2.4,2.4h77.3c1.3,0,2.4-1.1,2.4-2.4
			C199.3,134.8,197.1,125.9,192.9,118.2z"/>
		<path id="XMLID_8_" class="st3" d="M80.1,86.6h31.7l-6,6c-1.3,1.3-1.3,3.4,0,4.8c0.7,0.7,1.5,1,2.4,1c0.9,0,1.7-0.3,2.4-1
			l11.8-11.8c1.3-1.3,1.3-3.4,0-4.8l-11.8-11.8c-1.3-1.3-3.4-1.3-4.8,0c-1.3,1.3-1.3,3.4,0,4.8l6,6H80.1c-1.9,0-3.4,1.5-3.4,3.4
			C76.7,85.1,78.2,86.6,80.1,86.6z"/>
		<path id="XMLID_2_" class="st3" d="M88.2,114.3h31.7c1.9,0,3.4-1.5,3.4-3.4s-1.5-3.4-3.4-3.4H88.2l6-6c1.3-1.3,1.3-3.4,0-4.8
			c-1.3-1.3-3.4-1.3-4.8,0l-11.8,11.8c-1.3,1.3-1.3,3.4,0,4.8l11.8,11.8c0.7,0.7,1.5,1,2.4,1c0.9,0,1.7-0.3,2.4-1
			c1.3-1.3,1.3-3.4,0-4.8L88.2,114.3z"/>
	</g>
</g>
<g id="Layer_6" class="st0">
	<g id="XMLID_93_" class="st1">
		<g id="XMLID_158_">
			<g id="XMLID_159_">
				<path id="XMLID_160_" class="st3" d="M186.6,0.6h-33.3c-7.2,0-13.1,5.9-13.1,13.1V47c0,7.2,5.9,13.1,13.1,13.1h33.3
					c7.2,0,13.1-5.9,13.1-13.1V13.7C199.7,6.5,193.8,0.6,186.6,0.6z M193.4,47c0,3.8-3.1,6.9-6.9,6.9h-33.3c-3.8,0-6.9-3.1-6.9-6.9
					V13.7c0-3.8,3.1-6.9,6.9-6.9h33.3c3.8,0,6.9,3.1,6.9,6.9V47z"/>
			</g>
		</g>
		<g id="XMLID_155_">
			<g id="XMLID_156_">
				<path id="XMLID_89_" class="st3" d="M188.8,18.2c-1.2-1.2-3.2-1.2-4.4,0L166.6,36l-7.8-7.8c-1.2-1.2-3.2-1.2-4.4,0
					c-1.2,1.2-1.2,3.2,0,4.4l10,10c0.6,0.6,1.4,0.9,2.2,0.9s1.6-0.3,2.2-0.9l20-20C190,21.4,190,19.4,188.8,18.2z"/>
			</g>
		</g>
		<g id="XMLID_150_">
			<g id="XMLID_151_">
				<path id="XMLID_152_" class="st3" d="M186.6,70.6h-33.3c-7.2,0-13.1,5.9-13.1,13.1V117c0,7.2,5.9,13.1,13.1,13.1h33.3
					c7.2,0,13.1-5.9,13.1-13.1V83.7C199.7,76.4,193.8,70.6,186.6,70.6z M193.4,117c0,3.8-3.1,6.9-6.9,6.9h-33.3
					c-3.8,0-6.9-3.1-6.9-6.9V83.7c0-3.8,3.1-6.9,6.9-6.9h33.3c3.8,0,6.9,3.1,6.9,6.9V117z"/>
			</g>
		</g>
		<g id="XMLID_145_">
			<g id="XMLID_146_">
				<path id="XMLID_147_" class="st3" d="M186.6,140.5h-33.3c-7.2,0-13.1,5.9-13.1,13.1v33.3c0,7.2,5.9,13.1,13.1,13.1h33.3
					c7.2,0,13.1-5.9,13.1-13.1v-33.3C199.7,146.4,193.8,140.5,186.6,140.5z M193.4,186.9c0,3.8-3.1,6.9-6.9,6.9h-33.3
					c-3.8,0-6.9-3.1-6.9-6.9v-33.3c0-3.8,3.1-6.9,6.9-6.9h33.3c3.8,0,6.9,3.1,6.9,6.9V186.9z"/>
			</g>
		</g>
		<g id="XMLID_142_">
			<g id="XMLID_143_">
				<path id="XMLID_84_" class="st3" d="M188.8,158c-1.2-1.2-3.2-1.2-4.4,0l-17.8,17.8l-7.8-7.8c-1.2-1.2-3.2-1.2-4.4,0
					c-1.2,1.2-1.2,3.2,0,4.4l10,10c0.6,0.6,1.4,0.9,2.2,0.9s1.6-0.3,2.2-0.9l20-20C190,161.2,190,159.3,188.8,158z"/>
			</g>
		</g>
		<g id="XMLID_139_">
			<g id="XMLID_140_">
				<path id="XMLID_83_" class="st3" d="M70,17.3H3.4c-1.7,0-3.1,1.4-3.1,3.1c0,1.7,1.4,3.1,3.1,3.1H70c1.7,0,3.1-1.4,3.1-3.1
					S71.8,17.3,70,17.3z"/>
			</g>
		</g>
		<g id="XMLID_136_">
			<g id="XMLID_137_">
				<path id="XMLID_82_" class="st3" d="M120,17.3H83.4c-1.7,0-3.1,1.4-3.1,3.1c0,1.7,1.4,3.1,3.1,3.1H120c1.7,0,3.1-1.4,3.1-3.1
					C123.1,18.7,121.7,17.3,120,17.3z"/>
			</g>
		</g>
		<g id="XMLID_133_">
			<g id="XMLID_134_">
				<path id="XMLID_81_" class="st3" d="M120,37.3h-13.3c-1.7,0-3.1,1.4-3.1,3.1s1.4,3.1,3.1,3.1H120c1.7,0,3.1-1.4,3.1-3.1
					S121.7,37.3,120,37.3z"/>
			</g>
		</g>
		<g id="XMLID_130_">
			<g id="XMLID_131_">
				<path id="XMLID_80_" class="st3" d="M30.1,37.3H3.4c-1.7,0-3.1,1.4-3.1,3.1s1.4,3.1,3.1,3.1h26.6c1.7,0,3.1-1.4,3.1-3.1
					S31.8,37.3,30.1,37.3z"/>
			</g>
		</g>
		<g id="XMLID_127_">
			<g id="XMLID_128_">
				<path id="XMLID_77_" class="st3" d="M93.3,37.3H43.4c-1.7,0-3.1,1.4-3.1,3.1s1.4,3.1,3.1,3.1h49.9c1.7,0,3.1-1.4,3.1-3.1
					S95.1,37.3,93.3,37.3z"/>
			</g>
		</g>
		<g id="XMLID_124_">
			<g id="XMLID_125_">
				<path id="XMLID_74_" class="st3" d="M70,87.2H3.4c-1.7,0-3.1,1.4-3.1,3.1s1.4,3.1,3.1,3.1H70c1.7,0,3.1-1.4,3.1-3.1
					S71.8,87.2,70,87.2z"/>
			</g>
		</g>
		<g id="XMLID_121_">
			<g id="XMLID_122_">
				<path id="XMLID_71_" class="st3" d="M120,87.2H83.4c-1.7,0-3.1,1.4-3.1,3.1s1.4,3.1,3.1,3.1H120c1.7,0,3.1-1.4,3.1-3.1
					S121.7,87.2,120,87.2z"/>
			</g>
		</g>
		<g id="XMLID_118_">
			<g id="XMLID_119_">
				<path id="XMLID_68_" class="st3" d="M120,107.2h-13.3c-1.7,0-3.1,1.4-3.1,3.1s1.4,3.1,3.1,3.1H120c1.7,0,3.1-1.4,3.1-3.1
					S121.7,107.2,120,107.2z"/>
			</g>
		</g>
		<g id="XMLID_115_">
			<g id="XMLID_116_">
				<path id="XMLID_67_" class="st3" d="M30.1,107.2H3.4c-1.7,0-3.1,1.4-3.1,3.1s1.4,3.1,3.1,3.1h26.6c1.7,0,3.1-1.4,3.1-3.1
					S31.8,107.2,30.1,107.2z"/>
			</g>
		</g>
		<g id="XMLID_112_">
			<g id="XMLID_113_">
				<path id="XMLID_66_" class="st3" d="M93.3,107.2H43.4c-1.7,0-3.1,1.4-3.1,3.1s1.4,3.1,3.1,3.1h49.9c1.7,0,3.1-1.4,3.1-3.1
					S95.1,107.2,93.3,107.2z"/>
			</g>
		</g>
		<g id="XMLID_109_">
			<g id="XMLID_110_">
				<path id="XMLID_65_" class="st3" d="M70,157.1H3.4c-1.7,0-3.1,1.4-3.1,3.1c0,1.7,1.4,3.1,3.1,3.1H70c1.7,0,3.1-1.4,3.1-3.1
					C73.2,158.5,71.8,157.1,70,157.1z"/>
			</g>
		</g>
		<g id="XMLID_106_">
			<g id="XMLID_107_">
				<path id="XMLID_61_" class="st3" d="M120,157.1H83.4c-1.7,0-3.1,1.4-3.1,3.1c0,1.7,1.4,3.1,3.1,3.1H120c1.7,0,3.1-1.4,3.1-3.1
					S121.7,157.1,120,157.1z"/>
			</g>
		</g>
		<g id="XMLID_103_">
			<g id="XMLID_104_">
				<path id="XMLID_56_" class="st3" d="M120,177.1h-13.3c-1.7,0-3.1,1.4-3.1,3.1c0,1.7,1.4,3.1,3.1,3.1H120c1.7,0,3.1-1.4,3.1-3.1
					C123.1,178.5,121.7,177.1,120,177.1z"/>
			</g>
		</g>
		<g id="XMLID_100_">
			<g id="XMLID_101_">
				<path id="XMLID_17_" class="st3" d="M30.1,177.1H3.4c-1.7,0-3.1,1.4-3.1,3.1c0,1.7,1.4,3.1,3.1,3.1h26.6c1.7,0,3.1-1.4,3.1-3.1
					C33.2,178.5,31.8,177.1,30.1,177.1z"/>
			</g>
		</g>
		<g id="XMLID_97_">
			<g id="XMLID_98_">
				<path id="XMLID_16_" class="st3" d="M93.3,177.1H43.4c-1.7,0-3.1,1.4-3.1,3.1c0,1.7,1.4,3.1,3.1,3.1h49.9c1.7,0,3.1-1.4,3.1-3.1
					C96.5,178.5,95.1,177.1,93.3,177.1z"/>
			</g>
		</g>
		<g id="XMLID_94_">
			<g id="XMLID_95_">
				<path id="XMLID_14_" class="st3" d="M182.1,108.1l-7.8-7.8l7.8-7.8c1.2-1.2,1.2-3.2,0-4.4c-1.2-1.2-3.2-1.2-4.4,0l-7.8,7.8
					l-7.8-7.8c-1.2-1.2-3.2-1.2-4.4,0c-1.2,1.2-1.2,3.2,0,4.4l7.8,7.8l-7.8,7.8c-1.2,1.2-1.2,3.2,0,4.4c0.6,0.6,1.4,0.9,2.2,0.9
					c0.8,0,1.6-0.3,2.2-0.9l7.8-7.8l7.8,7.8c0.6,0.6,1.4,0.9,2.2,0.9s1.6-0.3,2.2-0.9C183.3,111.3,183.3,109.3,182.1,108.1z"/>
			</g>
		</g>
	</g>
</g>
<g id="Layer_7">
	<g id="XMLID_117_">
		<g id="XMLID_162_">
			<g id="XMLID_163_">
				<path id="XMLID_111_" class="st4" d="M182.9,61.5h-8.4v-5.4l5.3-5.8c2.7-3,4.2-6.9,4.2-11V25.6c0-9.6-7.8-17.4-17.4-17.4h-8
					c-9.6,0-17.4,7.8-17.4,17.4v13.7c0,4.1,1.5,7.9,4.2,11l5.3,5.8v5.4h-8.4c-8.2,0-15,5.8-16.7,13.4c-0.9-0.1-1.7-0.2-2.6-0.2H113
					v-6.6l6-6.6c3-3.3,4.7-7.6,4.7-12.1V34c0-10.6-8.6-19.2-19.2-19.2c-1.7,0-3,1.3-3,3s1.3,3,3,3c7.3,0,13.2,5.9,13.2,13.2v15.5
					c0,3-1.1,5.8-3.1,8l-6.2,6.8c-0.8,0.5-1.4,1.5-1.4,2.5v10.9c0,1.7,1.3,3,3,3h12.9c7.1,0,12.9,5.8,12.9,12.9v18.9H64.1V93.7
					c0-5.5,3.5-10.3,8.4-12.1c0.2,0,0.5-0.1,0.7-0.2c1.2-0.4,2.5-0.6,3.8-0.6h12.9c1.7,0,3-1.3,3-3V66.8c0-1.1-0.6-2-1.4-2.5
					l-6.2-6.8c-2-2.2-3.1-5.1-3.1-8V34c0-7.3,5.9-13.2,13.2-13.2c1.7,0,3-1.3,3-3c0-1.7-1.3-3-3-3c-10.6,0-19.2,8.6-19.2,19.2v15.5
					c0,4.5,1.7,8.8,4.7,12.1l6,6.6v6.6H77c-0.8,0-1.7,0.1-2.5,0.2c-1.7-7.7-8.5-13.4-16.7-13.4h-8.4v-5.4l5.3-5.8
					c2.7-3,4.2-6.9,4.2-11V25.6c0-9.6-7.8-17.4-17.4-17.4h-8c-9.6,0-17.4,7.8-17.4,17.4v13.7c0,4.1,1.5,7.9,4.2,11l5.3,5.8v5.4h-8.4
					C7.7,61.5,0,69.2,0,78.6v19.4c0,1.7,1.3,3,3,3h46.8c1.7,0,3-1.3,3-3s-1.3-3-3-3H6V78.6c0-6.1,5-11.1,11.1-11.1h11.4
					c1.7,0,3-1.3,3-3v-9.7c0-1-0.5-2-1.3-2.5l-5.5-6c-1.7-1.9-2.7-4.3-2.7-6.9V25.6c0-6.3,5.1-11.4,11.4-11.4h8
					c6.3,0,11.4,5.1,11.4,11.4v13.7c0,2.6-0.9,5-2.7,6.9l-5.5,6c-0.8,0.5-1.3,1.5-1.3,2.5v9.7c0,1.7,1.3,3,3,3h11.4
					c5.5,0,10,4,10.9,9.2c-6.3,3.1-10.7,9.5-10.7,17v21.9c0,1.7,1.3,3,3,3h77.6c1.7,0,3-1.3,3-3V93.7c0-7.4-4.3-13.8-10.5-16.9
					c0.9-5.2,5.5-9.2,11-9.2h11.4c1.7,0,3-1.3,3-3v-9.7c0-1-0.5-2-1.3-2.5l-5.5-6c-1.7-1.9-2.7-4.3-2.7-6.9V25.6
					c0-6.3,5.1-11.4,11.4-11.4h8c6.3,0,11.4,5.1,11.4,11.4v13.7c0,2.6-0.9,5-2.7,6.9l-5.5,6c-0.8,0.5-1.3,1.5-1.3,2.5v9.7
					c0,1.7,1.3,3,3,3h11.4c6.1,0,11.1,5,11.1,11.1V95h-43.3c-1.7,0-3,1.3-3,3c0,1.7,1.3,3,3,3H197c1.7,0,3-1.3,3-3V78.6
					C200,69.2,192.3,61.5,182.9,61.5z"/>
			</g>
		</g>
		<g id="XMLID_149_">
			<g id="XMLID_153_">
				<path id="XMLID_154_" class="st4" d="M130.2,156.7c-0.3-1.1-1.3-1.9-2.4-2l-16.4-2.7l-7.6-14.8c-0.5-1-1.5-1.6-2.7-1.6
					s-2.2,0.6-2.7,1.6l-7.6,14.8l-16.4,2.7c-1.1,0.2-2,1-2.4,2c-0.3,1.1-0.1,2.2,0.7,3l11.7,11.8L81.9,188c-0.2,1.1,0.3,2.2,1.2,2.9
					c0.5,0.4,1.1,0.6,1.8,0.6c0.5,0,0.9-0.1,1.3-0.3l14.9-7.5l14.9,7.5c1,0.5,2.2,0.4,3.1-0.3c0.9-0.7,1.4-1.8,1.2-2.9l-2.5-16.5
					l11.7-11.8C130.3,158.9,130.6,157.7,130.2,156.7z M112.5,168.4c-0.7,0.7-1,1.6-0.8,2.6l1.9,12.2l-11-5.5c-0.8-0.4-1.9-0.4-2.7,0
					l-11,5.5l1.9-12.2c0.1-0.9-0.2-1.9-0.8-2.6l-8.7-8.8l12.2-2c0.9-0.2,1.7-0.7,2.2-1.6l5.7-11l5.7,11c0.4,0.8,1.2,1.4,2.2,1.6
					l12.2,2L112.5,168.4z"/>
			</g>
		</g>
		<g id="XMLID_135_">
			<g id="XMLID_138_">
				<path id="XMLID_141_" class="st4" d="M196.1,134.6c-0.3-1.1-1.3-1.9-2.4-2l-16.4-2.7l-7.6-14.8c-0.5-1-1.5-1.6-2.7-1.6
					c-1.1,0-2.2,0.6-2.7,1.6l-7.6,14.8l-16.4,2.7c-1.1,0.2-2,1-2.4,2c-0.3,1.1-0.1,2.2,0.7,3l11.7,11.8l-2.5,16.5
					c-0.2,1.1,0.3,2.2,1.2,2.9c0.9,0.7,2.1,0.8,3.1,0.3l14.9-7.5l14.9,7.5c0.4,0.2,0.9,0.3,1.3,0.3c0.6,0,1.2-0.2,1.8-0.6
					c0.9-0.7,1.4-1.8,1.2-2.9l-2.5-16.5l11.7-11.8C196.1,136.8,196.4,135.6,196.1,134.6z M178.3,146.3c-0.7,0.7-1,1.6-0.8,2.6
					l1.9,12.2l-11-5.5c-0.4-0.2-0.9-0.3-1.4-0.3s-0.9,0.1-1.3,0.3l-11,5.5l1.9-12.2c0.1-0.9-0.2-1.9-0.8-2.6l-8.7-8.8l12.2-2
					c0.9-0.2,1.7-0.7,2.2-1.6l5.7-11l5.7,11c0.4,0.8,1.2,1.4,2.2,1.6l12.2,2L178.3,146.3z"/>
			</g>
		</g>
		<g id="XMLID_120_">
			<g id="XMLID_123_">
				<path id="XMLID_126_" class="st4" d="M64.4,134.6c-0.3-1.1-1.3-1.9-2.4-2l-16.4-2.7L38,115c-0.5-1-1.5-1.6-2.7-1.6
					s-2.2,0.6-2.7,1.6L25,129.8l-16.4,2.7c-1.1,0.2-2,1-2.4,2c-0.3,1.1-0.1,2.2,0.7,3l11.7,11.8l-2.5,16.5c-0.2,1.1,0.3,2.2,1.2,2.9
					c0.9,0.7,2.1,0.8,3.1,0.3l14.9-7.5l14.9,7.5c0.4,0.2,0.9,0.3,1.3,0.3c0.6,0,1.2-0.2,1.8-0.6c0.9-0.7,1.4-1.8,1.2-2.9L52,149.4
					l11.7-11.8C64.5,136.8,64.8,135.6,64.4,134.6z M46.7,146.3c-0.7,0.7-1,1.6-0.8,2.6l1.9,12.2l-11-5.5c-0.4-0.2-0.9-0.3-1.4-0.3
					c-0.5,0-0.9,0.1-1.4,0.3l-11,5.5l1.9-12.2c0.1-0.9-0.2-1.9-0.8-2.6l-8.7-8.8l12.2-2c0.9-0.2,1.7-0.7,2.2-1.6l5.7-11l5.7,11
					c0.4,0.8,1.2,1.4,2.2,1.6l12.2,2L46.7,146.3z"/>
			</g>
		</g>
	</g>
</g>
<g id="Layer_8" class="st0">
	<g id="XMLID_170_" class="st1">
		<g id="files">
			<path id="XMLID_144_" class="st3" d="M120.1,149.1H28.9c-6.4,0-11.6-5.2-11.6-11.6V11.6C17.3,5.2,22.5,0,28.9,0h62.8
				c2.9,0,5.2,2.3,5.2,5.2v28.3c0,0.7,0.6,1.3,1.3,1.3l28.4,0.1c2.8,0,5.2,2.3,5.2,5.2v97.5C131.7,143.9,126.5,149.1,120.1,149.1z
				 M28.9,10.3c-0.7,0-1.3,0.6-1.3,1.3v125.9c0,0.7,0.6,1.3,1.3,1.3h91.2c0.7,0,1.3-0.6,1.3-1.3V45.1L98.2,45
				c-6.4,0-11.6-5.2-11.6-11.6V10.3H28.9z"/>
			<path id="XMLID_132_" class="st3" d="M145.6,174.5H54.4c-2.9,0-5.2-2.3-5.2-5.2c0-2.9,2.3-5.2,5.2-5.2h91.2
				c0.7,0,1.3-0.6,1.3-1.3V65.4c0-2.9,2.3-5.2,5.2-5.2c2.9,0,5.2,2.3,5.2,5.2v97.5C157.2,169.3,152,174.5,145.6,174.5z"/>
			<path id="XMLID_129_" class="st3" d="M171.1,200H79.9c-2.9,0-5.2-2.3-5.2-5.2c0-2.9,2.3-5.2,5.2-5.2h91.2c0.7,0,1.3-0.6,1.3-1.3
				V90.9c0-2.9,2.3-5.2,5.2-5.2c2.9,0,5.2,2.3,5.2,5.2v97.5C182.7,194.8,177.5,200,171.1,200z"/>
		</g>
		<g id="XMLID_9_">
			<g id="XMLID_114_">
				<path id="XMLID_161_" class="st3" d="M128,9.2c-1-1-2.5-1-3.5,0l-13.2,13.2l-8.2-8.2c-1-1-2.5-1-3.5,0c-1,1-1,2.5,0,3.5l9.9,9.9
					c0.5,0.5,1.1,0.7,1.8,0.7c0.6,0,1.3-0.2,1.8-0.7L128,12.8C128.9,11.8,128.9,10.2,128,9.2z"/>
			</g>
		</g>
		<g id="XMLID_167_">
			<g id="XMLID_168_">
				<path id="XMLID_169_" class="st3" d="M110.8,121.6c-2,0-3.6,1.6-3.6,3.6c0,2,1.6,3.6,3.6,3.6c2,0,3.6-1.6,3.6-3.6
					C114.4,123.2,112.8,121.6,110.8,121.6z"/>
			</g>
		</g>
		<g id="XMLID_164_">
			<g id="XMLID_165_">
				<path id="XMLID_166_" class="st3" d="M96.4,121.6H38.6c-2,0-3.6,1.6-3.6,3.6c0,2,1.6,3.6,3.6,3.6h57.8c2,0,3.6-1.6,3.6-3.6
					C100,123.2,98.4,121.6,96.4,121.6z"/>
			</g>
		</g>
	</g>
</g>
</svg>
