<?xml version="1.0" encoding="utf-8"?>
<!-- Generator: Adobe Illustrator 19.0.0, SVG Export Plug-In . SVG Version: 6.00 Build 0)  -->
<svg version="1.1" xmlns="http://www.w3.org/2000/svg" xmlns:xlink="http://www.w3.org/1999/xlink" x="0px" y="0px" width="200px"
	 height="200px" viewBox="0 0 200 200" style="enable-background:new 0 0 200 200;" xml:space="preserve">
<style type="text/css">
	.st0{display:none;}
	.st1{display:inline;}
	.st2{fill:#060507;}
	.st3{fill:#010101;}
	.st4{font-family:'Antipasto';}
	.st5{font-size:89.7562px;}
	.st6{fill:#FFFFFF;}
	.st7{stroke:#FFFFFF;stroke-width:5;stroke-miterlimit:10;}
</style>
<g id="Layer_1" class="st0">
	<g id="XMLID_6_" class="st1">
		<path id="XMLID_7_" class="st2" d="M196.3,12.9c0-7.1-5.8-12.9-12.9-12.9l-43,0c-2.9,0-5.1,0.7-6.6,2.2c-2,2-2.8,5.8,1.5,10.1
			l10.9,10.9c-10.9,4.9-33.2,17-47.8,38.2H14.1c-0.6,0-1.3,0.1-1.9,0.2c-1.1,0.2-2.5,1-3.4,1.5c-0.8,0.5-3.1,2.2-4.2,4.4
			c-0.6,1.3-1,2.8-1,4.3v117.8c0,5.7,4.7,10.4,10.4,10.4h159.4c5.7,0,10.4-4.7,10.4-10.4V71.8c0-1.5-0.3-3-1-4.3
			c-1-2.2-3.3-3.9-4.2-4.4c-0.8-0.5-2.3-1.3-3.3-1.5c-0.6-0.1-1.3-0.2-1.9-0.2h-32c13.7-7.7,25.8-11.1,30.5-12.3l12,11.9
			c4.3,4.3,8.1,3.5,10.1,1.5c1.5-1.4,2.2-3.7,2.2-6.6L196.3,12.9z M175.5,73.5v116.1c0,1.1-0.9,2-2,2H14.1c-1.1,0-2-0.9-2-2l0.1-116
			l74.1,50.7c4.1,2.8,10.9,2.8,15,0L175.5,73.5z M166.1,69.8l-69.5,47.5c-1.3,0.9-4.1,0.9-5.5,0L21.5,69.8h71.7
			c-2.8,5.4-5.2,11.3-6.7,17.7c-2.4,10-1.7,19.4-1,20.6c0.4,0.7,0.9,1.4,1.4,2c0.7,0.8,1.7,1.3,2.8,1.5c1.8,0.3,4-1,5.1-1.8
			c1.1-0.8,5.3-9.2,11.3-17.5c6.7-9.3,14.5-16.7,22.4-22.5C128.5,69.8,166.1,69.8,166.1,69.8z M189.8,57.5c-0.3-0.2-0.8-0.5-1.3-1
			l-14.6-14.5c-0.3,0.1-22.4,4.4-45.1,19.5h-1V62c-13.1,8.9-26.4,21.4-35.8,38.9c3.5-52.7,59.8-74,60.4-74.2l4.4-1.9l-4.1-4.4
			L139.8,7.8c-0.5-0.5-0.8-0.9-1-1.3c0.3-0.1,0.8-0.2,1.6-0.2l43,0c3.6,0,6.5,2.9,6.5,6.5l0,43C189.9,56.6,189.8,57.1,189.8,57.5z"
			/>
	</g>
</g>
<g id="Layer_2" class="st0">
	<g id="XMLID_16_" class="st1">
		<path id="XMLID_17_" class="st3" d="M197.3,69.1c-2.2-2.7-5.5-4.3-9-4.3h-20.7V11.7c0-6.5-5.3-11.7-11.7-11.7H44.1
			c-6.5,0-11.7,5.3-11.7,11.7v53.1H11.7c-3.5,0-6.8,1.6-9,4.3C1,71.2,0,73.9,0,76.6v111.7c0,3.1,1.2,6.1,3.4,8.3c0,0,0,0,0,0
			c0,0,0,0,0,0c2.2,2.2,5.1,3.4,8.2,3.4h176.6c3.1,0,6-1.2,8.2-3.3c0,0,0,0,0,0c0,0,0,0,0,0c2.2-2.2,3.4-5.2,3.4-8.3V76.6
			C200,73.9,199,71.2,197.3,69.1z M167.6,72.7h19l-19,15.3V72.7z M40.2,11.7c0-2.2,1.8-3.9,3.9-3.9h111.7c2.2,0,3.9,1.8,3.9,3.9
			v82.5l-40.4,32.5l-16.8-14c-1.4-1.2-3.6-1.2-5,0l-16.8,14L40.2,94.2V11.7z M32.4,72.7v15.3l-19-15.3H32.4z M7.8,187.4V78.2
			l66.7,53.6L7.8,187.4z M14.2,192.2l69-57.5l16.8-14l16.8,14l69,57.5H14.2z M192.2,187.4l-66.7-55.6l66.7-53.6V187.4z"/>
	</g>
	<text id="XMLID_56_" transform="matrix(1.2753 0 0 1 73.942 83.9355)" class="st1 st4 st5">4</text>
</g>
<g id="Layer_3">
	<g id="XMLID_65_">
		<g id="XMLID_14_">
			<g id="XMLID_53_">
				<g id="XMLID_54_">
					<path id="XMLID_29_" class="st6" d="M139.1,167.6c-2.2,0-3.9,1.8-3.9,3.9c0,2.2,1.8,3.9,3.9,3.9c2.2,0,3.9-1.8,3.9-3.9
						C143,169.3,141.2,167.6,139.1,167.6z"/>
				</g>
			</g>
			<g id="XMLID_43_">
				<g id="XMLID_44_">
					<path id="XMLID_45_" class="st6" d="M197.3,69.1c-2.2-2.7-5.5-4.3-9-4.3h-20.7V11.7c0-6.5-5.3-11.7-11.7-11.7H44.1
						c-6.5,0-11.7,5.3-11.7,11.7v53.1H11.7c-3.5,0-6.8,1.6-9,4.3C1,71.2,0,73.9,0,76.6v111.7c0,3.1,1.2,6.1,3.4,8.3c0,0,0,0,0,0
						c0,0,0,0,0,0c2.2,2.2,5.1,3.4,8.2,3.4h176.6c3.1,0,6-1.2,8.2-3.3c0,0,0,0,0,0c0,0,0,0,0,0c2.2-2.2,3.4-5.2,3.4-8.3V76.6
						C200,73.9,199,71.2,197.3,69.1z M167.6,72.7h19l-19,15.3V72.7z M40.2,11.7c0-2.2,1.8-3.9,3.9-3.9h111.7c2.2,0,3.9,1.8,3.9,3.9
						v82.5l-40.4,32.5l-16.8-14c-1.4-1.2-3.6-1.2-5,0l-16.8,14L40.2,94.2V11.7z M32.4,72.7v15.3l-19-15.3H32.4z M7.8,187.4V78.2
						l66.7,53.6L7.8,187.4z M14.2,192.2l69-57.5l16.8-14l16.8,14l69,57.5H14.2z M192.2,187.4l-66.7-55.6l66.7-53.6V187.4z"/>
				</g>
			</g>
			<g id="XMLID_40_" class="st0">
				<g id="XMLID_41_" class="st1">
					<path id="XMLID_21_" class="st6" d="M122.3,49.2c-1.5-1.5-4-1.5-5.5,0L96.1,69.9L83.2,57c-1.5-1.5-4-1.5-5.5,0
						c-1.5,1.5-1.5,4,0,5.5l15.6,15.6c0.8,0.8,1.8,1.1,2.8,1.1s2-0.4,2.8-1.1l23.4-23.4C123.8,53.2,123.8,50.7,122.3,49.2z"/>
				</g>
			</g>
			<g id="XMLID_37_">
				<g id="XMLID_38_">
					<path id="XMLID_20_" class="st6" d="M123.4,167.6H60.9c-2.2,0-3.9,1.7-3.9,3.9s1.7,3.9,3.9,3.9h62.5c2.2,0,3.9-1.7,3.9-3.9
						S125.6,167.6,123.4,167.6z"/>
				</g>
			</g>
			<g id="XMLID_32_">
				<g id="XMLID_33_">
					<path id="XMLID_34_" class="st6" d="M100,16.8c-23.7,0-43,19.3-43,43s19.3,43,43,43s43-19.3,43-43S123.7,16.8,100,16.8z
						 M100,94.9c-19.4,0-35.2-15.8-35.2-35.2S80.6,24.6,100,24.6s35.2,15.8,35.2,35.2S119.4,94.9,100,94.9z"/>
				</g>
			</g>
		</g>
		<text id="XMLID_15_" transform="matrix(1.2753 0 0 1 71.2736 87.9268)" class="st6 st4 st5">4</text>
	</g>
</g>
<g id="Layer_4" class="st0">
	<g id="XMLID_51_" class="st1">
		<g id="XMLID_78_">
			<g id="XMLID_79_">
				<path id="XMLID_50_" class="st3" d="M84.4,175.4c-2.2,0-3.9,1.7-3.9,3.9c0,2.2,1.7,3.9,3.9,3.9s3.9-1.7,3.9-3.9
					C88.3,177.1,86.5,175.4,84.4,175.4z"/>
			</g>
		</g>
		<g id="XMLID_75_">
			<g id="XMLID_76_">
				<path id="XMLID_49_" class="st3" d="M107.8,136.3h-3.9V109c0-2.2-1.7-3.9-3.9-3.9h-7.8c-2.2,0-3.9,1.7-3.9,3.9s1.7,3.9,3.9,3.9
					h3.9v23.4h-3.9c-2.2,0-3.9,1.7-3.9,3.9s1.7,3.9,3.9,3.9h15.6c2.2,0,3.9-1.7,3.9-3.9S110,136.3,107.8,136.3z"/>
			</g>
		</g>
		<g id="XMLID_72_">
			<g id="XMLID_73_">
				<path id="XMLID_48_" class="st3" d="M44.2,159.8c2.2,0,3.9-1.7,3.9-3.9v-15.6c0-2.2-1.7-3.9-3.9-3.9H28.5
					c-2.2,0-3.9,1.7-3.9,3.9s1.7,3.9,3.9,3.9h11.7v7.8H28.5c-2.2,0-3.9,1.7-3.9,3.9v15.6c0,2.2,1.7,3.9,3.9,3.9h15.6
					c2.2,0,3.9-1.7,3.9-3.9s-1.7-3.9-3.9-3.9H32.4v-7.8H44.2z"/>
			</g>
		</g>
		<g id="XMLID_69_">
			<g id="XMLID_70_">
				<path id="XMLID_47_" class="st3" d="M171.5,144.1h-15.6c-2.2,0-3.9,1.7-3.9,3.9s1.7,3.9,3.9,3.9h11.7v7.8h-11.7
					c-2.2,0-3.9,1.7-3.9,3.9s1.7,3.9,3.9,3.9h11.7v7.8h-11.7c-2.2,0-3.9,1.7-3.9,3.9c0,2.2,1.7,3.9,3.9,3.9h15.6
					c2.2,0,3.9-1.7,3.9-3.9v-31.2C175.4,145.9,173.6,144.1,171.5,144.1z"/>
			</g>
		</g>
		<g id="XMLID_62_">
			<g id="XMLID_63_">
				<path id="XMLID_64_" class="st3" d="M196.1,128.5h-60.9V92.2c0-2.2-1.7-3.9-3.9-3.9H68.8c-2.2,0-3.9,1.7-3.9,3.9v20.7H3.9
					c-2.2,0-3.9,1.7-3.9,3.9v79.3c0,2.2,1.7,3.9,3.9,3.9h64.8h62.5h64.8c2.2,0,3.9-1.7,3.9-3.9v-63.7
					C200,130.3,198.3,128.5,196.1,128.5z M64.9,192.2h-57v-71.5h57V192.2z M127.3,192.2H72.7V96.1h54.7V192.2z M192.2,192.2h-57
					v-55.9h57V192.2z"/>
			</g>
		</g>
		<g id="XMLID_57_">
			<g id="XMLID_58_">
				<path id="XMLID_59_" class="st3" d="M138.8,29.8c-0.5-1.4-1.7-2.4-3.2-2.7l-22.2-3.2l-10-21.6c-0.6-1.4-2-2.3-3.5-2.3
					c-1.5,0-2.9,0.9-3.5,2.3l-10,21.6l-22.2,3.2c-1.5,0.2-2.7,1.2-3.2,2.7c-0.5,1.4-0.1,3,1,4l16.2,15.7l-3.8,23.4
					c-0.2,1.5,0.4,2.9,1.6,3.8c1.2,0.9,2.8,1,4.1,0.3l19.9-10.5L119.8,77c0.6,0.3,1.2,0.4,1.8,0.4c0.8,0,1.6-0.2,2.3-0.7
					c1.2-0.9,1.8-2.3,1.6-3.8l-3.8-23.4l16.2-15.7C138.9,32.7,139.2,31.2,138.8,29.8z M114.7,45.4c-0.9,0.9-1.3,2.2-1.1,3.4
					l2.9,17.7l-14.8-7.8c-1.1-0.6-2.5-0.6-3.6,0l-14.8,7.8l2.9-17.7c0.2-1.3-0.2-2.5-1.1-3.4L73,33.7l16.5-2.4c1.3-0.2,2.4-1,3-2.2
					l7.3-15.9l7.3,15.9c0.6,1.2,1.7,2,3,2.2l16.5,2.4L114.7,45.4z"/>
			</g>
		</g>
		<g id="XMLID_52_">
			<g id="XMLID_55_">
				<path id="XMLID_30_" class="st3" d="M115.6,175.4H100c-2.2,0-3.9,1.7-3.9,3.9c0,2.2,1.7,3.9,3.9,3.9h15.6c2.2,0,3.9-1.7,3.9-3.9
					C119.5,177.1,117.8,175.4,115.6,175.4z"/>
			</g>
		</g>
	</g>
	<g id="XMLID_60_" class="st1">
		<path id="XMLID_61_" class="st7" d=""/>
	</g>
</g>
</svg>
