<?xml version="1.0" encoding="utf-8"?>
<!-- Generator: Adobe Illustrator 19.0.0, SVG Export Plug-In . SVG Version: 6.00 Build 0)  -->
<svg version="1.1" xmlns="http://www.w3.org/2000/svg" xmlns:xlink="http://www.w3.org/1999/xlink" x="0px" y="0px" width="200px"
	 height="200px" viewBox="0 0 200 200" style="enable-background:new 0 0 200 200;" xml:space="preserve">
<style type="text/css">
	.st0{display:none;}
	.st1{fill:url(#SVGID_1_);}
	.st2{fill:url(#SVGID_2_);}
</style>
<g id="Layer_1" class="st0">
	
		<image style="display:inline;overflow:visible;" width="35" height="46" xlink:href="map-marker-default.png"  transform="matrix(1 0 0 1 83 77)">
	</image>
</g>
<g id="Layer_3">
</g>
<g id="Layer_2">
	<g>
		
			<radialGradient id="SVGID_1_" cx="100.5625" cy="119.4156" r="14.3127" fx="99.2891" fy="119.3944" gradientTransform="matrix(1 0 0 0.3027 0 83.271)" gradientUnits="userSpaceOnUse">
			<stop  offset="0.1181" style="stop-color:#686868"/>
			<stop  offset="0.4265" style="stop-color:#5D5D5D;stop-opacity:0.6503"/>
			<stop  offset="0.9689" style="stop-color:#404040;stop-opacity:3.525126e-002"/>
			<stop  offset="1" style="stop-color:#3E3E3E;stop-opacity:0"/>
		</radialGradient>
		<ellipse class="st1" cx="100.6" cy="119.4" rx="14.3" ry="3.6"/>
		<g>
			<g>
				<linearGradient id="SVGID_2_" gradientUnits="userSpaceOnUse" x1="100.5" y1="121.2062" x2="100.5" y2="75.4577">
					<stop  offset="0" style="stop-color:#A239CA"/>
					<stop  offset="1" style="stop-color:#4717F6"/>
				</linearGradient>
				<path class="st2" d="M99.8,75.5c-9.1,0.3-16.6,7.4-17.5,16.5c-0.2,1.8-0.1,3.6,0.2,5.2l0,0c0,0,0,0.2,0.1,0.6
					c0.3,1.3,0.7,2.5,1.2,3.6c1.8,4.3,6.1,11.6,15.6,19.5c0.6,0.5,1.4,0.5,2,0c9.5-7.9,13.7-15.1,15.6-19.5c0.5-1.1,0.9-2.4,1.2-3.6
					c0.1-0.4,0.1-0.6,0.1-0.6l0,0c0.2-1.1,0.3-2.3,0.3-3.5C118.8,83.4,110.2,75.1,99.8,75.5z M100.5,102.8c-4.9,0-8.9-4-8.9-8.9
					s4-8.9,8.9-8.9s8.9,4,8.9,8.9S105.4,102.8,100.5,102.8z"/>
			</g>
		</g>
	</g>
</g>
</svg>
