<?xml version="1.0" encoding="utf-8"?>
<!-- Generator: Adobe Illustrator 19.0.0, SVG Export Plug-In . SVG Version: 6.00 Build 0)  -->
<svg version="1.1" id="Capa_1" xmlns="http://www.w3.org/2000/svg" xmlns:xlink="http://www.w3.org/1999/xlink" x="0px" y="0px"
	 width="38.7px" height="35.2px" viewBox="-80 83.2 38.7 35.2" style="enable-background:new -80 83.2 38.7 35.2;"
	 xml:space="preserve">
<style type="text/css">
	.st0{fill:url(#SVGID_1_);}
	.st1{fill:url(#SVGID_2_);}
</style>
<linearGradient id="SVGID_1_" gradientUnits="userSpaceOnUse" x1="-80" y1="94.1146" x2="-51.7478" y2="94.1146">
	<stop  offset="0.2709" style="stop-color:#A239CA"/>
	<stop  offset="0.798" style="stop-color:#4717F6"/>
</linearGradient>
<path class="st0" d="M-70.6,104.1v-4.2h17.9c0.5,0,0.9-0.4,0.9-0.9v-9.7c0-0.5-0.4-0.9-0.9-0.9h-17.9v-4.2c0-0.4-0.3-0.8-0.6-0.9
	c-0.4-0.1-0.8,0-1,0.3l-7.5,10c-0.1,0.2-0.2,0.4-0.2,0.6s0.1,0.4,0.2,0.6l7.5,10c0.2,0.3,0.7,0.4,1,0.3
	C-70.9,104.8-70.6,104.5-70.6,104.1z M-71.5,98c-0.5,0-0.9,0.4-0.9,0.9v2.4l-5.4-7.2l5.4-7.2v2.4c0,0.5,0.4,0.9,0.9,0.9h17.9V98
	H-71.5z"/>
<g id="Layer_2">
	<linearGradient id="SVGID_2_" gradientUnits="userSpaceOnUse" x1="-69.5797" y1="107.4987" x2="-41.328" y2="107.4987">
		<stop  offset="0.2709" style="stop-color:#A239CA"/>
		<stop  offset="0.798" style="stop-color:#4717F6"/>
	</linearGradient>
	<path class="st1" d="M-41.5,106.9l-7.5-10c-0.2-0.3-0.7-0.4-1-0.3c-0.2,0.1-0.4,0.2-0.5,0.4c0,0.3-0.1,0.5-0.1,0.8v3.9h-17.9
		c-0.5,0-0.9,0.4-0.9,0.9v9.7c0,0.5,0.4,0.9,0.9,0.9h17.9v4.2c0,0.4,0.3,0.8,0.6,0.9c0.4,0.1,0.8,0,1-0.3l7.5-10
		C-41.3,107.7-41.3,107.3-41.5,106.9z"/>
</g>
</svg>
